# xmcd
#
# Track frame offsets: 
#        150
#        10408
#        30235
#        43210
#        58225
#        76940
#        95333
#        112928
#        128458
#        147518
#        161955
#        178670
#        195010
#
# Disc length: 2778 seconds
#
# Revision: 1
# Processed by: cddbd v1.5.2PL0 Copyright (c) Steve Scherf et al.
# Submitted via: ExactAudioCopy v1.1
#
DISCID=a20ad80d
DTITLE=Various Artist - 宇宙戦艦ヤマトSONG COLLECTION
DYEAR=1995
DGENRE=Anime
TTITLE0=ささきいさお - 宇宙戦艦ヤマト
TTITLE1=ささきいさお - 星のペンダント
TTITLE2=ささきいさお - 好敵手
TTITLE3=堀江美都子 - 銀河伝説
TTITLE4=ささきいさお - ヤマトより愛をこめて
TTITLE5=島倉千代子 - サーシャ～わが愛
TTITLE6=ささきいさお - ヤマト!!新たなる旅立ち
TTITLE7=堀江美都子 - おもかげ星
TTITLE8=ささきいさお - 星に想うスターシャ
TTITLE9=ささきいさお - テレサよ永遠に
TTITLE10=堀江美都子 - 愛の生命
TTITLE11=ささきいさお - 愛よその日まで
TTITLE12=ささきいさお - 真赤なスカーフ
EXTD=YEAR: 1995.9.21
EXTT0=
EXTT1=
EXTT2=
EXTT3=
EXTT4=
EXTT5=
EXTT6=
EXTT7=
EXTT8=
EXTT9=
EXTT10=
EXTT11=
EXTT12=
PLAYORDER=
